<svg fill-rule="evenodd" stroke-linejoin="round" stroke-miterlimit="2" clip-rule="evenodd" viewBox="0 0 500 500">
    <path fill="#ffd900" d="M267,472L250,412L233,472L267,472ZM242.111,33.085C243.515,29.989 246.6,28 250,28C253.4,28 256.485,29.989 257.889,33.085L318.771,167.345L465.273,183.758C468.652,184.137 471.497,186.457 472.547,189.69C473.598,192.923 472.66,196.472 470.149,198.765L361.274,298.155L390.935,442.559C391.619,445.889 390.292,449.312 387.542,451.31C384.791,453.308 381.126,453.513 378.17,451.833L250,379L121.83,451.833C118.874,453.513 115.209,453.308 112.458,451.31C109.708,449.312 108.381,445.889 109.065,442.559L138.726,298.155L29.851,198.765C27.34,196.472 26.402,192.923 27.453,189.69C28.503,186.457 31.348,184.137 34.727,183.758L181.229,167.345L242.111,33.085ZM55.619,343.272L107.392,308.507L45.078,310.948L55.619,343.272ZM455.097,310.212L392.774,307.995L444.671,342.574L455.097,310.212ZM111.767,103.002L161.039,141.228L139.142,82.837L111.767,103.002ZM360.448,82.584L338.685,141.025L387.869,102.685L360.448,82.584Z">

    </path>
</svg>